#!OML:ASF E:\Steps\Project 1\Capture day 1\Session 2\Subject.ASF
:FULLY-SPECIFIED
:DEGREES
162
root -1.05098 17.9788 20.8843 -154.231 1.02875 178.001
lowerback -27.6386 -2.99654 -6.67636
upperback 0.633326 -1.33845 -0.3208
thorax 15.6457 -0.943272 2.82747
lowerneck -0.0521464 -4.61597 0.245819
upperneck 21.0865 -4.97345 1.43352
head 6.43627 -1.63808 0.216416
rclavicle 6.4605e-015 -5.1684e-015
rhumerus -37.0278 -14.3941 -81.6355
rradius 34.0224
rwrist -3.31294
rhand -9.74235 -54.8268
rfingers 7.12502
rthumb 16.2317 -84.1673
lclavicle 6.4605e-015 -5.1684e-015
lhumerus -28.2721 4.1321 81.5503
lradius 23.5857
lwrist -3.1763
lhand -22.6019 -12.9143
lfingers 7.12502
lthumb 3.82756 17.031
rfemur -24.0367 6.36654 19.2929
rtibia 6.96569
rfoot -17.3723 -2.16606
rtoes -37.3235
lfemur -23.4731 -7.6242 -22.8153
ltibia 6.81508
lfoot -6.81365 -0.817678
ltoes -36.4858
163
root -1.04967 17.9792 20.8887 -154.294 1.01767 177.905
lowerback -27.7056 -3.00769 -6.82009
upperback 0.741182 -1.3015 -0.339144
thorax 15.8038 -0.94759 2.89716
lowerneck -0.44294 -4.67927 0.150251
upperneck 21.4001 -5.07862 1.55535
head 6.61158 -1.67604 0.256325
rclavicle -4.96962e-015 -9.93923e-015
rhumerus -36.9137 -14.5226 -81.6342
rradius 34.0363
rwrist -3.29293
rhand -9.7591 -54.8347
rfingers 7.12502
rthumb 16.2156 -84.1765
lclavicle -4.96962e-015 -9.93923e-015
lhumerus -28.1422 3.9243 81.6417
lradius 23.7058
lwrist -2.99495
lhand -22.0482 -12.6415
lfingers 7.12502
lthumb 4.36222 17.2935
rfemur -23.9449 6.77555 19.0835
rtibia 6.90777
rfoot -17.2875 -2.54299
rtoes -37.2182
lfemur -23.4318 -7.50263 -22.962
ltibia 6.82946
lfoot -6.74806 -0.87337
ltoes -37.2736
164
root -1.0502 17.9794 20.8873 -154.386 1.07174 177.945
lowerback -27.6073 -2.95515 -6.78879
upperback 0.735307 -1.25452 -0.33873
thorax 15.7439 -0.924386 2.90109
lowerneck -0.80294 -4.75598 0.097869
upperneck 21.9225 -5.15471 1.56809
head 6.84585 -1.68858 0.256712
rclavicle 4.96962e-015 2.34566e-014
rhumerus -37.009 -14.4775 -81.6424
rradius 34.1398
rwrist -3.3454
rhand -9.77056 -55.1523
rfingers 7.12502
rthumb 16.2046 -84.495
lclavicle 4.96962e-015 2.34566e-014
lhumerus -28.2626 3.87268 81.6492
lradius 23.8651
lwrist -2.99255
lhand -22.0198 -12.4429
lfingers 7.12502
lthumb 4.38964 17.4916
rfemur -23.8236 6.92685 19.1007
rtibia 6.86077
rfoot -17.2432 -2.59416
rtoes -37.1212
lfemur -23.2921 -7.39093 -22.9521
ltibia 6.74678
lfoot -6.71959 -0.941295
ltoes -37.6318
165
root -1.05144 17.978 20.8889 -154.335 1.09351 177.989
lowerback -27.7083 -2.92716 -6.71425
upperback 0.748084 -1.23059 -0.349076
thorax 15.8043 -0.908973 2.85666
lowerneck -0.42499 -4.574 0.168294
upperneck 21.135 -4.96336 1.55087
head 6.52129 -1.63644 0.258812
rclavicle 8.24956e-015 -1.19271e-014
rhumerus -36.9439 -14.4731 -81.7056
rradius 34.0848
rwrist -3.33837
rhand -9.86584 -55.1454
rfingers 7.12502
rthumb 16.1128 -84.4956
lclavicle 8.24956e-015 -1.19271e-014
lhumerus -28.2595 3.91749 81.5827
lradius 23.9192
lwrist -2.93634
lhand -22.2642 -12.5208
lfingers 7.12502
lthumb 4.15367 17.4184
rfemur -23.9398 6.78113 19.1862
rtibia 6.95869
rfoot -17.2334 -2.47377
rtoes -37.3638
lfemur -23.3602 -7.50898 -22.8658
ltibia 6.72575
lfoot -6.72661 -0.829994
ltoes -37.2346
166
root -1.05211 17.9811 20.8926 -154.413 1.08703 177.985
lowerback -27.5411 -2.9198 -6.72986
upperback 0.74076 -1.23615 -0.339276
thorax 15.7154 -0.912691 2.87677
lowerneck -0.332599 -4.54252 0.0935042
upperneck 20.7284 -4.97675 1.65988
head 6.37992 -1.66641 0.306858
rclavicle -3.57812e-015 -2.90226e-014
rhumerus -36.8894 -14.4592 -81.7017
rradius 33.9953
rwrist -3.32797
rhand -9.85129 -54.9521
rfingers 7.12502
rthumb 16.1268 -84.3011
lclavicle -3.57812e-015 -2.90226e-014
lhumerus -28.2123 4.06961 81.5419
lradius 23.825
lwrist -2.96317
lhand -22.4431 -12.5062
lfingers 7.12502
lthumb 3.98085 17.4363
rfemur -23.8751 6.61594 19.2389
rtibia 6.9853
rfoot -17.1845 -2.34333
rtoes -37.2328
lfemur -23.2875 -7.61994 -22.851
ltibia 6.72817
lfoot -6.78713 -0.759279
ltoes -36.2723
167
root -1.05156 17.9806 20.8968 -154.36 1.03125 177.988
lowerback -27.6041 -2.93788 -6.71081
upperback 0.755451 -1.25895 -0.34463
thorax 15.7652 -0.922275 2.85017
lowerneck -0.188644 -4.58419 0.00695152
upperneck 20.2899 -5.10276 1.8499
head 6.22389 -1.74712 0.377411
rclavicle 5.36719e-015 -3.06128e-014
rhumerus -36.8099 -14.4849 -81.7303
rradius 33.9703
rwrist -3.34842
rhand -9.80167 -55.0295
rfingers 7.12502
rthumb 16.1746 -84.3746
lclavicle 5.36719e-015 -3.06128e-014
lhumerus -28.1001 4.0829 81.5313
lradius 23.7589
lwrist -3.05125
lhand -22.5013 -12.1629
lfingers 7.12502
lthumb 3.92469 17.7807
rfemur -23.9093 6.8304 19.1987
rtibia 6.92381
rfoot -17.1262 -2.63364
rtoes -37.3483
lfemur -23.4085 -7.47225 -22.8793
ltibia 6.86477
lfoot -6.87828 -0.952586
ltoes -37.0741
168
root -1.05289 17.9786 20.8946 -154.353 1.04037 178.01
lowerback -27.5796 -2.92658 -6.69542
upperback 0.692735 -1.24706 -0.34491
thorax 15.6777 -0.909401 2.84765
lowerneck 0.0272498 -4.61141 -0.0132029
upperneck 20.0749 -5.1603 1.95758
head 6.12262 -1.77736 0.416665
rclavicle 2.98177e-016 -2.46493e-014
rhumerus -36.9563 -14.4926 -81.7061
rradius 33.9889
rwrist -3.24907
rhand -9.93267 -55.0811
rfingers 7.12502
rthumb 16.0485 -84.4364
lclavicle 2.98177e-016 -2.46493e-014
lhumerus -28.1952 3.97689 81.5476
lradius 23.7474
lwrist -3.06147
lhand -22.5716 -12.0708
lfingers 7.12502
lthumb 3.85684 17.8741
rfemur -23.8712 7.18273 19.1378
rtibia 6.87143
rfoot -17.1701 -2.98042
rtoes -37.5965
lfemur -23.3947 -7.26469 -22.9364
ltibia 6.89322
lfoot -6.90518 -1.0174
ltoes -38.4741
169
root -1.05428 17.9779 20.897 -154.341 1.02507 178.046
lowerback -27.8079 -2.88332 -6.67206
upperback 0.804271 -1.17859 -0.358435
thorax 15.9132 -0.888123 2.84153
lowerneck -0.0749116 -4.61452 0.0950599
upperneck 20.0189 -5.18123 1.92839
head 6.11871 -1.78746 0.386122
rclavicle -1.03368e-014 9.93923e-015
rhumerus -36.7634 -14.7062 -81.7295
rradius 33.9181
rwrist -2.75223
rhand -10.1192 -55.0615
rfingers 7.12502
rthumb 15.8688 -84.4312
lclavicle -1.03368e-014 9.93923e-015
lhumerus -27.9808 3.83587 81.5814
lradius 23.7001
lwrist -2.96907
lhand -22.4632 -12.1761
lfingers 7.12502
lthumb 3.9615 17.7668
rfemur -23.8698 7.30346 19.1529
rtibia 6.8386
rfoot -17.1202 -3.06706
rtoes -37.509
lfemur -23.4128 -7.20276 -22.902
ltibia 6.85023
lfoot -6.83244 -1.0525
ltoes -37.4208
170
root -1.05535 17.9779 20.8988 -154.34 1.02673 178.073
lowerback -27.7372 -2.85102 -6.6496
upperback 0.734059 -1.14589 -0.360317
thorax 15.792 -0.864771 2.84253
lowerneck -0.181597 -4.64018 0.283757
upperneck 20.2692 -5.16335 1.66314
head 6.20387 -1.76906 0.269601
rclavicle 4.37326e-015 5.96354e-015
rhumerus -36.8536 -14.8365 -81.6573
rradius 33.9188
rwrist -2.17452
rhand -10.073 -54.9605
rfingers 7.12502
rthumb 15.9133 -84.3267
lclavicle 4.37326e-015 5.96354e-015
lhumerus -28.0887 3.75413 81.5825
lradius 23.715
lwrist -2.88894
lhand -22.3535 -12.2073
lfingers 7.12502
lthumb 4.06743 17.7336
rfemur -23.8727 7.28598 19.1842
rtibia 6.81
rfoot -17.0254 -3.00056
rtoes -37.3454
lfemur -23.4147 -7.32986 -22.8236
ltibia 6.80372
lfoot -6.8234 -1.01762
ltoes -36.5645
171
root -1.05649 17.9789 20.8995 -154.342 1.06442 178.032
lowerback -27.7471 -2.87232 -6.70617
upperback 0.705731 -1.15271 -0.353231
thorax 15.7649 -0.869428 2.87864
lowerneck -0.296581 -4.67967 0.407915
upperneck 20.6398 -5.14798 1.40083
head 6.33102 -1.74949 0.163912
rclavicle -5.46658e-015 -1.19271e-014
rhumerus -36.932 -14.776 -81.6477
rradius 33.9709
rwrist -2.22496
rhand -9.69854 -54.8948
rfingers 7.12502
rthumb 16.2739 -84.2319
lclavicle -5.46658e-015 -1.19271e-014
lhumerus -28.1708 3.75998 81.6031
lradius 23.7327
lwrist -2.89971
lhand -22.4445 -12.2088
lfingers 7.12502
lthumb 3.97955 17.7338
rfemur -23.8841 7.40451 19.086
rtibia 6.8041
rfoot -17.0352 -3.0971
rtoes -37.2355
lfemur -23.408 -7.36147 -22.8779
ltibia 6.8076
lfoot -6.82543 -1.00064
ltoes -37.5974
172
root -1.0574 17.9813 20.9008 -154.395 1.08598 177.963
lowerback -27.7429 -2.89623 -6.79633
upperback 0.72142 -1.15516 -0.353034
thorax 15.7829 -0.878835 2.92677
lowerneck -0.554297 -4.81477 0.377596
upperneck 21.1786 -5.27795 1.30222
head 6.54733 -1.79282 0.123608
rclavicle 2.88238e-015 -2.06736e-014
rhumerus -36.9653 -14.6006 -81.7318
rradius 34.0061
rwrist -2.81944
rhand -9.3528 -55.123
rfingers 7.12502
rthumb 16.6068 -84.4325
lclavicle 2.88238e-015 -2.06736e-014
lhumerus -28.2102 3.72677 81.6355
lradius 23.8048
lwrist -2.79995
lhand -22.3578 -12.1928
lfingers 7.12502
lthumb 4.06326 17.7482
rfemur -23.8487 7.41073 18.993
rtibia 6.83987
rfoot -17.1331 -3.13815
rtoes -37.2885
lfemur -23.3601 -7.17502 -23.0376
ltibia 6.83954
lfoot -6.84492 -1.11263
ltoes -38.7628
173
root -1.05697 17.9804 20.9043 -154.372 1.08914 177.961
lowerback -27.7977 -2.88875 -6.80994
upperback 0.713345 -1.13008 -0.37048
thorax 15.7971 -0.866761 2.92423
lowerneck -0.224324 -4.73895 0.530969
upperneck 20.697 -5.18239 1.16335
head 6.32689 -1.76922 0.067961
rclavicle -1.19271e-015 2.78299e-015
rhumerus -36.9531 -14.5617 -81.8136
rradius 33.9377
rwrist -3.17708
rhand -9.39252 -55.2269
rfingers 7.12502
rthumb 16.5686 -84.5396
lclavicle -1.19271e-015 2.78299e-015
lhumerus -28.2041 3.66815 81.6036
lradius 23.8486
lwrist -2.63
lhand -22.0955 -12.3402
lfingers 7.12502
lthumb 4.31654 17.5958
rfemur -23.9487 7.3794 19.0061
rtibia 6.97611
rfoot -17.2591 -3.13469
rtoes -37.2122
lfemur -23.431 -6.96521 -23.0973
ltibia 6.92068
lfoot -6.96347 -1.22291
ltoes -39.504
